<svg width="18" height="22" viewBox="0 0 18 22" fill="none" xmlns="http://www.w3.org/2000/svg">
<path fill-rule="evenodd" clip-rule="evenodd" d="M9 4.56348C6.92893 4.56348 5.25 6.24241 5.25 8.31348C5.25 10.3845 6.92893 12.0635 9 12.0635C11.0711 12.0635 12.75 10.3845 12.75 8.31348C12.75 6.24241 11.0711 4.56348 9 4.56348ZM9 10.5635C7.75736 10.5635 6.75 9.55612 6.75 8.31348C6.75 7.07084 7.75736 6.06348 9 6.06348C10.2426 6.06348 11.25 7.07084 11.25 8.31348C11.25 9.55612 10.2426 10.5635 9 10.5635ZM9 0.0634766C4.44579 0.068643 0.755167 3.75927 0.75 8.31348C0.75 11.2572 2.11031 14.3772 4.6875 17.3369C5.84552 18.6743 7.14886 19.8786 8.57344 20.9275C8.83177 21.1085 9.17573 21.1085 9.43406 20.9275C10.856 19.8782 12.1568 18.6739 13.3125 17.3369C15.8859 14.3772 17.25 11.2572 17.25 8.31348C17.2448 3.75927 13.5542 0.068643 9 0.0634766ZM9 19.376C7.45031 18.1572 2.25 13.6807 2.25 8.31348C2.25 4.58555 5.27208 1.56348 9 1.56348C12.7279 1.56348 15.75 4.58555 15.75 8.31348C15.75 13.6788 10.5497 18.1572 9 19.376Z" fill="#1C170D"/>
</svg>
