<svg width="20" height="16" viewBox="0 0 20 16" fill="none" xmlns="http://www.w3.org/2000/svg">
<path fill-rule="evenodd" clip-rule="evenodd" d="M19 0.0634766H1C0.585786 0.0634766 0.25 0.399263 0.25 0.813477V13.5635C0.25 14.3919 0.921573 15.0635 1.75 15.0635H18.25C19.0784 15.0635 19.75 14.3919 19.75 13.5635V0.813477C19.75 0.399263 19.4142 0.0634766 19 0.0634766ZM10 8.04629L2.92844 1.56348H17.0716L10 8.04629ZM7.25406 7.56348L1.75 12.6082V2.51879L7.25406 7.56348ZM8.36406 8.58066L9.48906 9.6166C9.77592 9.87993 10.2166 9.87993 10.5034 9.6166L11.6284 8.58066L17.0659 13.5635H2.92844L8.36406 8.58066ZM12.7459 7.56348L18.25 2.51785V12.6091L12.7459 7.56348Z" fill="#1C170D"/>
</svg>
