<svg width="19" height="20" viewBox="0 0 19 20" fill="none" xmlns="http://www.w3.org/2000/svg">
<path fill-rule="evenodd" clip-rule="evenodd" d="M17.8472 13.4191L13.4306 11.44L13.4184 11.4344C12.9526 11.2352 12.4177 11.2845 11.9963 11.5657C11.9718 11.5818 11.9483 11.5993 11.9259 11.6182L9.64406 13.5635C8.19844 12.8613 6.70594 11.38 6.00375 9.95316L7.95187 7.6366C7.97062 7.61316 7.98844 7.58973 8.00531 7.56441C8.28032 7.14418 8.32677 6.61421 8.12906 6.15254V6.14129L6.14437 1.71723C5.88009 1.10738 5.246 0.744169 4.58625 0.824727C1.95833 1.17053 -0.00475144 3.41291 0 6.06348C0 13.5072 6.05625 19.5635 13.5 19.5635C16.1506 19.5682 18.3929 17.6051 18.7388 14.9772C18.8195 14.3177 18.4567 13.6837 17.8472 13.4191ZM13.5 18.0635C6.87558 18.0562 1.50723 12.6879 1.5 6.06348C1.4927 4.16966 2.89195 2.56456 4.76906 2.31348C4.76869 2.31722 4.76869 2.32099 4.76906 2.32473L6.73781 6.73098L4.8 9.05035C4.78033 9.07298 4.76246 9.09712 4.74656 9.12254C4.45961 9.56286 4.42405 10.1212 4.65281 10.5944C5.50219 12.3316 7.2525 14.0688 9.00844 14.9172C9.48515 15.1439 10.0459 15.1033 10.485 14.8104C10.5091 14.7941 10.5322 14.7766 10.5544 14.7579L12.8334 12.8135L17.2397 14.7869C17.2397 14.7869 17.2472 14.7869 17.25 14.7869C17.002 16.6668 15.3962 18.0699 13.5 18.0635Z" fill="#1C170D"/>
</svg>
